<?xml version="1.0" standalone="no"?>
<!DOCTYPE svg PUBLIC "-//W3C//DTD SVG 20010904//EN"
 "http://www.w3.org/TR/2001/REC-SVG-20010904/DTD/svg10.dtd">
<svg version="1.0" xmlns="http://www.w3.org/2000/svg"
 width="260.000000pt" height="260.000000pt" viewBox="0 0 260.000000 260.000000"
 preserveAspectRatio="xMidYMid meet">
<metadata>
Created by potrace 1.14, written by Peter Selinger 2001-2017
</metadata>
<g transform="translate(0.000000,260.000000) scale(0.100000,-0.100000)"
fill="#000000" stroke="none">
<path d="M0 1300 l0 -1300 1300 0 1300 0 0 1300 0 1300 -1300 0 -1300 0 0
-1300z m2255 730 l130 -130 -113 -112 -112 -113 -132 132 -133 133 110 110
c60 60 112 110 115 110 3 0 64 -59 135 -130z m-832 -712 l-428 -428 33 -32 32
-33 423 423 c233 232 427 422 433 422 5 0 35 -26 67 -58 l57 -57 -558 -558
-559 -559 -239 -108 c-131 -60 -240 -108 -241 -106 -2 2 44 108 102 237 l105
234 562 562 563 563 37 -37 38 -37 -427 -428z"/>
<path d="M824 718 c-35 -37 -63 -81 -93 -147 -23 -51 -40 -95 -39 -96 2 -2 44
16 95 39 65 29 107 56 143 91 27 27 47 52 42 56 -4 4 -23 9 -42 11 -32 3 -35
6 -45 51 l-10 48 -51 -53z"/>
</g>
</svg>
